<svg width="74" height="73" viewBox="0 0 74 73" fill="none" xmlns="http://www.w3.org/2000/svg">
<g clip-path="url(#clip0_1367_22)">
<path d="M11.0402 64.3941L5.29492 0.960449H68.4277L62.6767 64.3846L36.823 71.44L11.0402 64.3941Z" fill="#1572B6"/>
<path d="M36.8618 66.0474L57.7531 60.3459L62.6681 6.14673H36.8618V66.0474Z" fill="#33A9DC"/>
<path d="M36.8618 29.1287H47.3203L48.0426 21.162H36.8618V13.3821H56.6805L56.4908 15.4695L54.5479 36.9086H36.8618V29.1287Z" fill="white"/>
<path d="M36.9088 49.3338L36.8739 49.3439L28.072 47.0045L27.5092 40.7996H19.5764L20.6833 53.0154L36.8728 57.4383L36.9088 57.4282V49.3338Z" fill="#EBEBEB"/>
<path d="M46.6484 36.5796L45.6964 46.9982L36.8813 49.3405V57.4348L53.084 53.0147L53.2028 51.7002L54.5777 36.5796H46.6484Z" fill="white"/>
<path d="M36.8887 13.3821V21.162H17.798L17.6397 19.4138L17.2797 15.4695L17.0906 13.3821H36.8887ZM36.8619 29.1298V36.9098H28.1708L28.0125 35.1615L27.6519 31.2173L27.4634 29.1298H36.8619Z" fill="#EBEBEB"/>
</g>
<defs>
<clipPath id="clip0_1367_22">
<rect width="73.1444" height="72" fill="white" transform="translate(0.289062 0.199951)"/>
</clipPath>
</defs>
</svg>
