<svg width="74" height="72" viewBox="0 0 74 72" fill="none" xmlns="http://www.w3.org/2000/svg">
<g clip-path="url(#clip0_1367_29)">
<path d="M26.4928 72.5625C33.2929 72.5625 38.7787 67.1625 38.7787 60.4688V48.375H26.4928C19.6926 48.375 14.2068 53.775 14.2068 60.4688C14.2068 67.1625 19.6926 72.5625 26.4928 72.5625Z" fill="#0ACF83"/>
<path d="M14.2068 36.2812C14.2068 29.5875 19.6926 24.1875 26.4928 24.1875H38.7787V48.375H26.4928C19.6926 48.375 14.2068 42.975 14.2068 36.2812Z" fill="#A259FF"/>
<path d="M14.2068 12.0938C14.2068 5.4 19.6926 0 26.4928 0H38.7787V24.1875H26.4928C19.6926 24.1875 14.2068 18.7875 14.2068 12.0938Z" fill="#F24E1E"/>
<path d="M38.7788 0H51.0648C57.8649 0 63.3508 5.4 63.3508 12.0938C63.3508 18.7875 57.8649 24.1875 51.0648 24.1875H38.7788V0Z" fill="#FF7262"/>
<path d="M63.3508 36.2812C63.3508 42.975 57.8649 48.375 51.0648 48.375C44.2646 48.375 38.7788 42.975 38.7788 36.2812C38.7788 29.5875 44.2646 24.1875 51.0648 24.1875C57.8649 24.1875 63.3508 29.5875 63.3508 36.2812Z" fill="#1ABCFE"/>
</g>
<defs>
<clipPath id="clip0_1367_29">
<rect width="73.1444" height="72" fill="white" transform="translate(0.492188)"/>
</clipPath>
</defs>
</svg>
