<svg width="75" height="73" viewBox="0 0 75 73" fill="none" xmlns="http://www.w3.org/2000/svg">
<path fill-rule="evenodd" clip-rule="evenodd" d="M37.4979 3.27051C18.4421 3.27051 2.98975 18.4777 2.98975 37.2388C2.98975 52.2474 12.8774 64.9796 26.5885 69.4717C28.3126 69.7867 28.9457 68.7348 28.9457 67.8376C28.9457 67.0276 28.9137 64.3518 28.8989 61.5135C19.2987 63.5683 17.2729 57.5056 17.2729 57.5056C15.7032 53.5794 13.4414 52.5354 13.4414 52.5354C10.3099 50.4271 13.6774 50.471 13.6774 50.471C17.1421 50.7101 18.9672 53.9714 18.9672 53.9714C22.045 59.1633 27.04 57.6626 29.0092 56.7952C29.3189 54.5998 30.2132 53.1007 31.2001 52.2524C23.5353 51.3946 15.4774 48.4814 15.4774 35.4658C15.4774 31.7572 16.826 28.727 19.0335 26.3476C18.6747 25.4926 17.4935 22.0378 19.3672 17.3589C19.3672 17.3589 22.2644 16.4459 28.8589 20.8408C31.6121 20.0876 34.5647 19.709 37.4979 19.6961C40.4294 19.709 43.3838 20.0864 46.1421 20.8396C52.7285 16.4448 55.6223 17.3578 55.6223 17.3578C57.5006 22.0361 56.3195 25.4915 55.9612 26.3465C58.1738 28.7259 59.5127 31.7561 59.5127 35.4646C59.5127 48.5113 51.4399 51.3834 43.7558 52.2249C44.9941 53.279 46.097 55.3468 46.097 58.5153C46.097 63.0603 46.057 66.7183 46.057 67.8371C46.057 68.741 46.6787 69.8002 48.4273 69.4666C62.1305 64.97 72.0067 52.2418 72.0067 37.2388C72.0061 18.4788 56.5555 3.27051 37.4979 3.27051Z" fill="#E5E6E0"/>
<path d="M16.0598 52.041C15.9838 52.2097 15.7141 52.2603 15.4684 52.145C15.2169 52.0348 15.0769 51.8047 15.1581 51.6354C15.2324 51.461 15.5026 51.4132 15.7524 51.5296C16.0038 51.6405 16.1467 51.8728 16.0592 52.0415L16.0598 52.041ZM17.4575 53.576C17.2935 53.7262 16.9718 53.6564 16.7535 53.4185C16.5272 53.1823 16.485 52.8656 16.6524 52.7131C16.8227 52.5635 17.1347 52.6344 17.361 52.8706C17.5861 53.1103 17.6307 53.4241 17.4581 53.5766L17.4575 53.576ZM18.8187 55.5318C18.6073 55.677 18.261 55.5414 18.0473 55.2393C17.8358 54.9367 17.8358 54.5739 18.053 54.4293C18.2661 54.2842 18.6073 54.4153 18.8244 54.7145C19.0347 55.0211 19.0347 55.3845 18.8187 55.5318ZM20.6822 57.4224C20.4936 57.6277 20.0902 57.5726 19.7953 57.293C19.4942 57.0191 19.4102 56.6293 19.5993 56.4245C19.7913 56.2186 20.1965 56.276 20.493 56.5539C20.7942 56.8273 20.8851 57.2176 20.6833 57.4218L20.6822 57.4224ZM23.2537 58.5198C23.1697 58.7859 22.7822 58.9068 22.3908 58.7932C22.0005 58.6768 21.7451 58.3657 21.8251 58.0968C21.9051 57.8285 22.2954 57.7031 22.6891 57.824C23.0794 57.9399 23.3348 58.2493 23.2537 58.5198ZM26.0783 58.7229C26.088 59.003 25.7566 59.2348 25.3469 59.2404C24.9337 59.25 24.5994 59.0227 24.5954 58.7471C24.5954 58.4641 24.92 58.2352 25.3326 58.2273C25.7423 58.22 26.0789 58.445 26.0789 58.7223L26.0783 58.7229ZM28.7058 58.283C28.7549 58.5558 28.4698 58.8365 28.0623 58.9113C27.6623 58.9844 27.2909 58.8146 27.2395 58.544C27.1903 58.2639 27.4806 57.9832 27.8806 57.9106C28.2886 57.8414 28.6544 58.0057 28.7058 58.283Z" fill="#E5E6E0"/>
</svg>
