<svg width="74" height="73" viewBox="0 0 74 73" fill="none" xmlns="http://www.w3.org/2000/svg">
<path d="M11.0229 64.4553L5.30566 1.33435H68.1276L62.404 64.4457L36.6783 71.4657L11.0229 64.4553Z" fill="#E44D26"/>
<path d="M36.7168 66.1L57.5047 60.4266L62.3956 6.49524H36.7168V66.1Z" fill="#F16529"/>
<path d="M36.7168 29.9059H26.3098L25.5909 21.9781H36.7168V14.2369H16.9958L17.1844 16.3137L19.117 37.6476H36.7168V29.9059ZM36.7168 50.0114L36.682 50.0209L27.9235 47.6922L27.3641 41.5188H19.4685L20.5702 53.6738L36.6808 58.0759L36.7168 58.0664V50.0114Z" fill="#EBEBEB"/>
<path d="M36.6892 29.9059V37.6476H46.3734L45.4608 47.6877L36.6892 50.0181V58.0726L52.8124 53.6738L52.9307 52.366L54.7787 31.9849L54.9702 29.9059H52.8513H36.6892ZM36.6892 14.2369V21.9781H55.6862L55.8439 20.2388L56.2028 16.3137L56.3908 14.2369H36.6892Z" fill="white"/>
</svg>
