<svg width="74" height="72" viewBox="0 0 74 72" fill="none" xmlns="http://www.w3.org/2000/svg">
<path d="M36.9199 42.4125C40.5178 42.4125 43.4344 39.5416 43.4344 36C43.4344 32.4585 40.5178 29.5875 36.9199 29.5875C33.3221 29.5875 30.4055 32.4585 30.4055 36C30.4055 39.5416 33.3221 42.4125 36.9199 42.4125Z" fill="#61DAFB"/>
<path d="M61.6633 25.425C60.4061 24.975 59.0918 24.525 57.7204 24.1313C58.0632 22.7813 58.3489 21.4313 58.5775 20.1375C59.7775 12.7125 58.4632 7.48127 54.806 5.45627C53.7203 4.83752 52.5202 4.55627 51.1488 4.55627C47.1487 4.55627 42.0629 7.48127 36.9199 12.375C31.7769 7.48127 26.6911 4.55627 22.691 4.55627C21.3196 4.55627 20.1195 4.83752 19.0338 5.45627C15.3766 7.53752 14.0623 12.7688 15.2623 20.1375C15.4909 21.4313 15.7766 22.7813 16.1195 24.1313C14.748 24.525 13.4337 24.9188 12.1765 25.425C5.0335 28.125 1.14771 31.8375 1.14771 36C1.14771 40.1625 5.09065 43.875 12.1765 46.575C13.4337 47.025 14.748 47.475 16.1195 47.8688C15.7766 49.2188 15.4909 50.5688 15.2623 51.8625C14.0623 59.2875 15.3766 64.5188 19.0338 66.5438C20.1195 67.1625 21.3196 67.4438 22.691 67.4438C26.7483 67.4438 31.8341 64.5188 36.9199 59.625C42.0629 64.5188 47.1487 67.4438 51.1488 67.4438C52.5202 67.4438 53.7203 67.1625 54.806 66.5438C58.4632 64.4625 59.7775 59.2313 58.5775 51.8625C58.3489 50.5688 58.0632 49.2188 57.7204 47.8688C59.0918 47.475 60.4061 47.0813 61.6633 46.575C68.8063 43.875 72.6921 40.1625 72.6921 36C72.6921 31.8375 68.8063 28.125 61.6633 25.425ZM53.206 8.26877C55.5489 9.61877 56.3489 13.7813 55.3774 19.6875C55.206 20.8688 54.9203 22.1063 54.5774 23.4C51.6059 22.725 48.463 22.275 45.1487 21.9938C43.2058 19.2938 41.2057 16.875 39.2057 14.6813C43.4343 10.575 47.7201 7.76252 51.2059 7.76252C51.9488 7.76252 52.6345 7.93127 53.206 8.26877ZM46.8058 41.625C45.7772 43.425 44.5772 45.225 43.32 47.025C41.2057 47.1938 39.0914 47.25 36.9199 47.25C34.6913 47.25 32.577 47.1938 30.5198 47.025C29.2626 45.225 28.1197 43.425 27.0911 41.625C26.0054 39.7688 24.9768 37.8563 24.0625 36C24.9768 34.1438 26.0054 32.2313 27.0911 30.375C28.1197 28.575 29.3197 26.775 30.5769 24.975C32.6912 24.8063 34.8056 24.75 36.977 24.75C39.2057 24.75 41.32 24.8063 43.3772 24.975C44.6344 26.775 45.7772 28.575 46.8058 30.375C47.8916 32.2313 48.9202 34.1438 49.8345 36C48.863 37.8563 47.8916 39.7125 46.8058 41.625ZM51.5488 39.7688C52.4059 41.7375 53.0917 43.65 53.7203 45.5625C51.7774 46.0125 49.7202 46.35 47.5487 46.6313C48.2344 45.5625 48.9773 44.4375 49.6059 43.2563C50.2916 42.075 50.9202 40.8938 51.5488 39.7688ZM36.9199 55.0125C35.5484 53.55 34.2341 51.975 32.977 50.3438C34.2913 50.4 35.6056 50.4563 36.9199 50.4563C38.2342 50.4563 39.5485 50.4 40.8628 50.3438C39.6057 51.975 38.2914 53.55 36.9199 55.0125ZM26.2911 46.575C24.1196 46.2938 22.0624 45.9563 20.1195 45.5063C20.7481 43.65 21.4339 41.6813 22.291 39.7125C22.9196 40.8375 23.5482 42.0188 24.2339 43.1438C24.9196 44.3813 25.6054 45.45 26.2911 46.575ZM22.291 32.2313C21.4339 30.2625 20.7481 28.35 20.1195 26.4375C22.0624 25.9875 24.1196 25.65 26.2911 25.3688C25.6054 26.4375 24.8625 27.5625 24.2339 28.7438C23.5482 29.925 22.9196 31.1063 22.291 32.2313ZM36.9199 16.9875C38.2914 18.45 39.6057 20.025 40.8628 21.6563C39.5485 21.6 38.2342 21.5438 36.9199 21.5438C35.6056 21.5438 34.2913 21.6 32.977 21.6563C34.2341 20.025 35.5484 18.45 36.9199 16.9875ZM49.6059 28.8L47.5487 25.425C49.7202 25.7063 51.7774 26.0438 53.7203 26.4938C53.0917 28.35 52.4059 30.3188 51.5488 32.2875C50.9202 31.1063 50.2916 29.925 49.6059 28.8ZM18.4624 19.6875C17.4909 13.7813 18.2909 9.61877 20.6338 8.26877C21.2053 7.93127 21.891 7.76252 22.6339 7.76252C26.0625 7.76252 30.3483 10.5188 34.6341 14.6813C32.6341 16.8188 30.6341 19.2938 28.6912 21.9938C25.3768 22.275 22.2339 22.7813 19.2624 23.4C18.9195 22.1063 18.6909 20.8688 18.4624 19.6875ZM4.34777 36C4.34777 33.3563 7.60499 30.5438 13.3194 28.4625C14.4623 28.0125 15.7194 27.6188 16.9766 27.2813C17.8909 30.0938 19.0338 33.075 20.4053 36.0563C19.0338 39.0375 17.8338 41.9625 16.9766 44.775C9.09073 42.525 4.34777 39.15 4.34777 36ZM20.6338 63.7313C18.2909 62.3813 17.4909 58.2188 18.4624 52.3125C18.6338 51.1313 18.9195 49.8938 19.2624 48.6C22.2339 49.275 25.3768 49.725 28.6912 50.0063C30.6341 52.7063 32.6341 55.125 34.6341 57.3188C30.4055 61.425 26.1197 64.2375 22.6339 64.2375C21.891 64.2375 21.2053 64.0688 20.6338 63.7313ZM55.3774 52.3125C56.3489 58.2188 55.5489 62.3813 53.206 63.7313C52.6345 64.0688 51.9488 64.2375 51.2059 64.2375C47.7773 64.2375 43.4915 61.4813 39.2057 57.3188C41.2057 55.1813 43.2058 52.7063 45.1487 50.0063C48.463 49.725 51.6059 49.2188 54.5774 48.6C54.9203 49.8938 55.1489 51.1313 55.3774 52.3125ZM60.5204 43.5375C59.3775 43.9875 58.1204 44.3813 56.8632 44.7188C55.9489 41.9063 54.806 38.925 53.4345 35.9438C54.806 32.9625 56.006 30.0375 56.8632 27.225C64.7491 29.475 69.492 32.85 69.492 36C69.492 38.6438 66.1777 41.4563 60.5204 43.5375Z" fill="#61DAFB"/>
</svg>
