<svg width="74" height="72" viewBox="0 0 74 72" fill="none" xmlns="http://www.w3.org/2000/svg">
<g clip-path="url(#clip0_1367_76)">
<path d="M36.981 14.4011C27.1199 14.4011 20.9589 19.1993 18.4917 28.7994C22.1884 24.0008 26.5039 22.2013 31.4331 23.4011C34.2475 24.084 36.2588 26.0708 38.4862 28.2724C42.1112 31.8538 46.3071 36 55.4703 36C65.3309 36 71.4924 31.2013 73.9596 21.5989C70.2623 26.4004 65.9474 28.1998 61.0177 27C58.2038 26.3166 56.1949 24.3304 53.9646 22.1287C50.3418 18.5473 46.1471 14.4011 36.981 14.4011ZM18.4917 36C8.63116 36 2.46961 40.7987 0.00244141 50.4011C3.69914 45.5996 8.01408 43.8002 12.9438 45C15.7582 45.6834 17.7695 47.6696 19.9969 49.8713C23.6219 53.4527 27.8178 57.5989 36.981 57.5989C46.8416 57.5989 53.0031 52.8008 55.4703 43.2006C51.773 47.9993 47.4581 49.7987 42.5284 48.5989C39.7145 47.916 37.7056 45.9293 35.4753 43.7276C31.8526 40.1462 27.6578 36 18.4917 36Z" fill="#38B2AC"/>
</g>
<defs>
<clipPath id="clip0_1367_76">
<rect width="73.9572" height="72" fill="white"/>
</clipPath>
</defs>
</svg>
