<svg width="74" height="72" viewBox="0 0 74 72" fill="none" xmlns="http://www.w3.org/2000/svg">
<g clip-path="url(#clip0_1367_78)">
<path d="M13.0984 26.4375H70.6867V67.8769H13.0984V26.4375Z" fill="white"/>
<path d="M0.866699 35.9493V71.1056H73.0905V0.793091H0.866699V35.9493ZM59.0675 33.1368C60.7974 33.5276 62.3696 34.4084 63.5858 35.6681C64.2554 36.3467 64.8375 37.1023 65.3192 37.9181C65.3192 38.0081 62.1991 40.0612 60.2982 41.2087C60.2289 41.2537 59.9515 40.9612 59.6453 40.5168C59.2983 39.9339 58.8052 39.4461 58.2121 39.0988C57.619 38.7516 56.9453 38.5563 56.2537 38.5312C54.0639 38.385 52.654 39.5043 52.6656 41.3437C52.6475 41.8017 52.7552 42.256 52.9776 42.66C53.4572 43.6331 54.3527 44.2125 57.1608 45.3937C62.332 47.5593 64.545 48.9881 65.9201 51.0187C67.457 53.2687 67.7979 56.9025 66.7579 59.5912C65.6023 62.5162 62.7711 64.5018 58.7671 65.16C56.9383 65.3639 55.0905 65.345 53.2665 65.1037C50.4709 64.6551 47.8958 63.3484 45.917 61.3743C45.2525 60.66 43.9583 58.7981 44.0392 58.6631C44.2501 58.5107 44.4722 58.3734 44.7036 58.2525L47.3788 56.8125L49.4531 55.6425L49.8864 56.2668C50.6178 57.2853 51.5485 58.1531 52.6252 58.8206C54.9363 60.0018 58.091 59.8387 59.6511 58.4718C60.1749 57.971 60.5016 57.3071 60.5745 56.5959C60.6473 55.8846 60.4616 55.171 60.0498 54.5793C59.472 53.7975 58.3164 53.1393 55.0865 51.7668C51.3598 50.2031 49.7535 49.2356 48.2859 47.6943C47.3698 46.6773 46.6933 45.4773 46.3041 44.1787C46.0138 42.6951 45.9709 41.1756 46.177 39.6787C46.9455 36.1743 49.6438 33.7275 53.5843 33.0018C55.4092 32.782 57.2577 32.8313 59.0675 33.1481V33.1368ZM42.1151 36.0843V38.9643H32.7376V64.9687H26.0872V38.9587H16.6866V36.1462C16.6573 35.1763 16.6805 34.2056 16.7559 33.2381C16.8022 33.1875 22.5338 33.1875 29.4673 33.1875H42.0805L42.1151 36.0843Z" fill="#007ACC"/>
</g>
<defs>
<clipPath id="clip0_1367_78">
<rect width="73.9572" height="72" fill="white"/>
</clipPath>
</defs>
</svg>
