<svg width="102" height="24" viewBox="0 0 102 24" fill="none" xmlns="http://www.w3.org/2000/svg">
<path d="M16.56 7.01H14.82C14.46 7.01 14.23 6.82 14.13 6.44C14.03 5.66 13.96 5.02 13.92 4.52H6.93V10.52H14.28V13.64H6.93V19.76H13.92C13.96 19.26 14.03 18.62 14.13 17.84C14.23 17.46 14.46 17.27 14.82 17.27H16.56V23H0.6V21.23C0.6 20.73 0.85 20.42 1.35 20.3L1.53 20.27C1.59 20.27 1.65 20.26 1.71 20.24C1.79 20.22 1.88 20.2 1.98 20.18L2.88 20.03V4.28L1.98 4.13C1.88 4.11 1.79 4.09 1.71 4.07C1.65 4.05 1.59 4.04 1.53 4.04L1.35 4.01C0.85 3.89 0.6 3.58 0.6 3.08V1.31H16.56V7.01ZM25.2966 20.3C25.7966 20.42 26.0466 20.73 26.0466 21.23V23H17.7966V21.23C17.7966 20.73 18.0466 20.42 18.5466 20.3L18.7266 20.27L19.1766 20.18L20.0766 20.03V3.68L19.1766 3.53C19.0766 3.51 18.9866 3.49 18.9066 3.47C18.8466 3.45 18.7866 3.44 18.7266 3.44L18.5466 3.41C18.0466 3.29 17.7966 2.98 17.7966 2.48V0.709999H23.7666V20.03L24.6666 20.18L25.1166 20.27L25.2966 20.3ZM52.523 20.3C53.023 20.42 53.273 20.73 53.273 21.23V23H47.303V13.22C47.303 12.22 47.093 11.48 46.673 11C46.253 10.5 45.623 10.25 44.783 10.25C44.443 10.25 44.083 10.32 43.703 10.46C43.383 10.58 43.103 10.76 42.863 11C42.663 11.2 42.473 11.51 42.293 11.93C42.153 12.27 42.083 12.7 42.083 13.22V20.03L42.953 20.18L43.403 20.27L43.583 20.3C44.083 20.42 44.333 20.73 44.333 21.23V23H38.363V13.22C38.363 12.2 38.153 11.45 37.733 10.97C37.313 10.49 36.703 10.25 35.903 10.25C35.363 10.25 34.863 10.38 34.403 10.64C33.983 10.88 33.553 11.25 33.113 11.75V20.03L33.983 20.18L34.433 20.27L34.613 20.3C35.113 20.42 35.363 20.73 35.363 21.23V23H27.143V21.23C27.143 20.73 27.393 20.42 27.893 20.3L28.073 20.27C28.133 20.27 28.193 20.26 28.253 20.24C28.333 20.22 28.423 20.2 28.523 20.18L29.393 20.03V10.58L28.523 10.43C28.423 10.41 28.333 10.39 28.253 10.37C28.193 10.35 28.133 10.34 28.073 10.34L27.893 10.31C27.373 10.19 27.113 9.88 27.113 9.38V7.61H31.673C32.133 7.61 32.443 7.84 32.603 8.3L32.843 9.44C33.203 9.04 33.483 8.76 33.683 8.6C33.963 8.38 34.283 8.17 34.643 7.97C34.963 7.79 35.323 7.64 35.723 7.52C36.043 7.42 36.463 7.37 36.983 7.37C37.983 7.37 38.783 7.63 39.383 8.15C40.023 8.71 40.493 9.41 40.793 10.25C41.033 9.73 41.333 9.29 41.693 8.93C42.013 8.61 42.403 8.32 42.863 8.06C43.203 7.86 43.663 7.69 44.243 7.55C44.723 7.43 45.213 7.37 45.713 7.37C46.573 7.37 47.323 7.5 47.963 7.76C48.663 8.04 49.223 8.42 49.643 8.9C50.083 9.4 50.423 10.01 50.663 10.73C50.903 11.45 51.023 12.28 51.023 13.22V20.03L51.893 20.18C51.993 20.2 52.073 20.22 52.133 20.24C52.213 20.26 52.283 20.27 52.343 20.27L52.523 20.3ZM61.9477 7.37C63.0477 7.37 64.0877 7.56 65.0677 7.94C66.0277 8.32 66.8277 8.84 67.4677 9.5C68.1077 10.16 68.6077 10.99 68.9677 11.99C69.3277 12.97 69.5077 14.06 69.5077 15.26C69.5077 16.46 69.3277 17.56 68.9677 18.56C68.5877 19.58 68.0877 20.42 67.4677 21.08C66.8077 21.78 66.0077 22.31 65.0677 22.67C64.1477 23.03 63.1077 23.21 61.9477 23.21C60.7877 23.21 59.7377 23.03 58.7977 22.67C57.8577 22.31 57.0577 21.78 56.3977 21.08C55.6977 20.36 55.1777 19.52 54.8377 18.56C54.4777 17.56 54.2977 16.46 54.2977 15.26C54.2977 14.06 54.4777 12.97 54.8377 11.99C55.1777 11.07 55.6977 10.24 56.3977 9.5C57.0377 8.84 57.8377 8.32 58.7977 7.94C59.7777 7.56 60.8277 7.37 61.9477 7.37ZM61.9477 20.36C63.2277 20.36 64.1677 19.93 64.7677 19.07C65.3877 18.17 65.6977 16.91 65.6977 15.29C65.6977 13.67 65.3877 12.41 64.7677 11.51C64.1677 10.63 63.2277 10.19 61.9477 10.19C60.6677 10.19 59.7077 10.63 59.0677 11.51C58.4277 12.39 58.1077 13.66 58.1077 15.32C58.1077 16.94 58.4277 18.19 59.0677 19.07C59.6877 19.93 60.6477 20.36 61.9477 20.36ZM83.1002 3.08C83.1002 3.58 82.8502 3.89 82.3502 4.01L82.1702 4.04C82.1102 4.04 82.0402 4.05 81.9602 4.07C81.9002 4.09 81.8202 4.11 81.7202 4.13L80.8202 4.28V15.29C80.8202 16.49 80.6702 17.59 80.3702 18.59C80.0702 19.59 79.6302 20.42 79.0502 21.08C78.4302 21.78 77.6802 22.31 76.8002 22.67C75.8602 23.05 74.8302 23.24 73.7102 23.24C73.1702 23.24 72.6402 23.21 72.1202 23.15C71.6402 23.09 71.0902 22.98 70.4702 22.82L70.6802 20.42C70.7002 20.24 70.7902 20.07 70.9502 19.91C71.1302 19.77 71.3402 19.7 71.5802 19.7C71.7402 19.7 71.9602 19.73 72.2402 19.79C72.6002 19.87 72.9502 19.91 73.2902 19.91C73.8902 19.91 74.3902 19.83 74.7902 19.67C75.1902 19.53 75.5602 19.26 75.9002 18.86C76.1802 18.52 76.4002 18.06 76.5602 17.48C76.7202 16.88 76.8002 16.18 76.8002 15.38V4.28L75.8402 4.13C75.7202 4.11 75.6102 4.09 75.5102 4.07C75.4102 4.05 75.3302 4.04 75.2702 4.04L75.0002 4.01C74.5002 3.89 74.2502 3.58 74.2502 3.08V1.31H83.1002V3.08ZM94.3247 7.34C95.1047 7.34 95.7347 7.51 96.2147 7.85L95.7347 10.64C95.7147 10.82 95.6547 10.94 95.5547 11C95.4347 11.08 95.2947 11.12 95.1347 11.12C94.9947 11.12 94.7947 11.09 94.5347 11.03C94.1747 10.95 93.8247 10.91 93.4847 10.91C92.7047 10.91 92.0447 11.12 91.5047 11.54C91.0047 11.92 90.5447 12.55 90.1247 13.43V20.03L91.6247 20.3C92.1247 20.42 92.3747 20.73 92.3747 21.23V23H84.1547V21.23C84.1547 20.73 84.4047 20.42 84.9047 20.3L86.4047 20.03V10.58L84.9047 10.31C84.4047 10.19 84.1547 9.88 84.1547 9.38V7.61H88.5947C88.9747 7.61 89.2347 7.68 89.3747 7.82C89.5147 7.96 89.6147 8.2 89.6747 8.54L89.9147 10.4C90.4547 9.42 91.0947 8.67 91.8347 8.15C92.5947 7.61 93.4247 7.34 94.3247 7.34Z" fill="#E5E6E0"/>
<path d="M97.4011 20.96C97.4011 20.62 97.4611 20.32 97.5811 20.06C97.7011 19.78 97.8611 19.54 98.0611 19.34C98.2611 19.14 98.5011 18.98 98.7811 18.86C99.0611 18.74 99.3611 18.68 99.6811 18.68C100.001 18.68 100.301 18.74 100.581 18.86C100.861 18.98 101.101 19.14 101.301 19.34C101.501 19.54 101.661 19.78 101.781 20.06C101.901 20.32 101.961 20.62 101.961 20.96C101.961 21.28 101.901 21.58 101.781 21.86C101.661 22.12 101.501 22.35 101.301 22.55C101.101 22.75 100.861 22.91 100.581 23.03C100.321 23.15 100.031 23.21 99.7111 23.21C99.3911 23.21 99.0911 23.15 98.8111 23.03C98.4911 22.89 98.2411 22.73 98.0611 22.55C97.8611 22.35 97.7011 22.12 97.5811 21.86C97.4611 21.58 97.4011 21.28 97.4011 20.96Z" fill="#FFC412"/>
</svg>
