<svg width="75" height="74" viewBox="0 0 75 74" fill="none" xmlns="http://www.w3.org/2000/svg">
<g clip-path="url(#clip0_1367_111)">
<path d="M8.82354 16.3612C8.6851 12.4852 11.7863 8.91113 15.9787 8.91113H58.9363C63.1287 8.91113 66.2299 12.4852 66.0914 16.3612C65.9582 20.0842 66.1311 24.9072 67.3777 28.8396C68.6283 32.7844 70.7371 35.2772 74.1911 35.598V39.2306C70.7371 39.5514 68.6283 42.0442 67.3777 45.9891C66.1311 49.9214 65.9582 54.7444 66.0914 58.4675C66.2299 62.3435 63.1287 65.917 58.9363 65.917H15.9787C11.7863 65.917 8.6851 62.3429 8.82354 58.4675C8.95672 54.7444 8.78382 49.9214 7.53668 45.9891C6.28662 42.0448 4.17203 39.5514 0.718018 39.2306V35.598C4.17203 35.2778 6.28662 32.7844 7.53668 28.8396C8.78382 24.9072 8.95614 20.0842 8.82354 16.3612Z" fill="url(#paint0_linear_1367_111)"/>
<g filter="url(#filter0_d_1367_111)">
<path d="M39.2719 52.775C46.059 52.775 50.1489 49.5394 50.1489 44.2025C50.1489 40.1684 47.2307 37.2479 42.8976 36.7855V36.6174C46.0811 36.1132 48.5793 33.2347 48.5793 30.02C48.5793 25.4396 44.8652 22.4559 39.2056 22.4559H26.4714V52.775H39.2719ZM31.4236 26.301H38.0118C41.5933 26.301 43.6271 27.8558 43.6271 30.6713C43.6271 33.6759 41.2617 35.3568 36.9727 35.3568H31.4236V26.301ZM31.4236 48.9299V38.9496H37.9675C42.6543 38.9496 45.0862 40.6305 45.0862 43.9083C45.0862 47.1859 42.7208 48.9299 38.2549 48.9299H31.4236Z" fill="url(#paint1_linear_1367_111)"/>
<path d="M39.2719 52.775C46.059 52.775 50.1489 49.5394 50.1489 44.2025C50.1489 40.1684 47.2307 37.2479 42.8976 36.7855V36.6174C46.0811 36.1132 48.5793 33.2347 48.5793 30.02C48.5793 25.4396 44.8652 22.4559 39.2056 22.4559H26.4714V52.775H39.2719ZM31.4236 26.301H38.0118C41.5933 26.301 43.6271 27.8558 43.6271 30.6713C43.6271 33.6759 41.2617 35.3568 36.9727 35.3568H31.4236V26.301ZM31.4236 48.9299V38.9496H37.9675C42.6543 38.9496 45.0862 40.6305 45.0862 43.9083C45.0862 47.1859 42.7208 48.9299 38.2549 48.9299H31.4236Z" stroke="white" stroke-width="0.24566"/>
</g>
</g>
<defs>
<filter id="filter0_d_1367_111" x="22.4181" y="19.3852" width="31.7842" height="38.4258" filterUnits="userSpaceOnUse" color-interpolation-filters="sRGB">
<feFlood flood-opacity="0" result="BackgroundImageFix"/>
<feColorMatrix in="SourceAlpha" type="matrix" values="0 0 0 0 0 0 0 0 0 0 0 0 0 0 0 0 0 0 127 0" result="hardAlpha"/>
<feOffset dy="0.98264"/>
<feGaussianBlur stdDeviation="1.96528"/>
<feColorMatrix type="matrix" values="0 0 0 0 0 0 0 0 0 0 0 0 0 0 0 0 0 0 0.15 0"/>
<feBlend mode="normal" in2="BackgroundImageFix" result="effect1_dropShadow_1367_111"/>
<feBlend mode="normal" in="SourceGraphic" in2="effect1_dropShadow_1367_111" result="shape"/>
</filter>
<linearGradient id="paint0_linear_1367_111" x1="11.6359" y1="10.4198" x2="74.5049" y2="61.6763" gradientUnits="userSpaceOnUse">
<stop stop-color="#9013FE"/>
<stop offset="1" stop-color="#6610F2"/>
</linearGradient>
<linearGradient id="paint1_linear_1367_111" x1="28.7118" y1="24.4511" x2="42.5013" y2="48.4044" gradientUnits="userSpaceOnUse">
<stop stop-color="white"/>
<stop offset="1" stop-color="#F1E5FC"/>
</linearGradient>
<clipPath id="clip0_1367_111">
<rect width="74.7699" height="72.8" fill="white" transform="translate(0.0703125 0.599976)"/>
</clipPath>
</defs>
</svg>
