<svg width="74" height="73" viewBox="0 0 74 73" fill="none" xmlns="http://www.w3.org/2000/svg">
<g clip-path="url(#clip0_1367_18)">
<path d="M34.5746 0.285427C34.298 0.314115 33.4346 0.414802 32.6729 0.503115C29.6019 0.847927 26.1196 1.7558 23.0635 3.02311C12.0033 7.57205 3.67909 17.5525 1.38246 28.9999C0.841881 31.7224 0.710449 33.0601 0.710449 36.1999C0.710449 40.2471 1.11903 43.0399 2.20191 46.5691C5.74199 58.1172 14.9582 67.1746 26.7202 70.6727C30.2602 71.7252 33.1129 72.1274 37.209 72.1274C41.3205 72.1274 44.1577 71.7252 47.7429 70.6592C59.4746 67.1746 68.6759 58.1026 72.2297 46.5246C73.2989 43.0399 73.7075 40.2319 73.7075 36.1999C73.7075 34.486 73.6206 32.5285 73.5177 31.8074C72.3326 23.4846 68.8502 16.486 63.0444 10.7687C57.2494 5.09536 50.1692 1.65455 41.8891 0.487927C40.7485 0.329302 35.4672 0.184177 34.5746 0.285427ZM22.6526 22.9654C23.4298 23.1961 23.7932 23.4121 24.3201 23.9301C25.3447 24.9539 25.579 25.5147 25.579 27.0548C25.579 28.2085 25.5344 28.4239 25.1841 29.0281C24.5098 30.1508 22.9452 31.1881 21.8629 31.2162C21.1012 31.2319 21.1326 30.9001 21.9658 30.0366C23.0772 28.8987 23.2378 28.4672 23.2378 26.7668C23.2241 25.126 23.0189 24.5652 22.2441 24.1039C21.5995 23.7152 20.8983 23.7439 19.8737 24.2181C17.2108 25.4725 14.329 29.6479 13.2039 33.9257C11.7107 39.6278 14.3582 44.1914 18.7177 43.4134C19.9897 43.1828 22.3892 41.9746 23.4298 41.0228C24.2915 40.2471 24.2915 40.2319 24.3784 39.2678C24.5704 37.2501 26.0167 35.2352 27.9499 34.2992C28.8402 33.8661 29.0613 33.8245 30.2602 33.8245C31.4008 33.8245 31.6643 33.8819 32.2203 34.1828C33.99 35.1784 33.6243 37.4959 31.7088 37.4959C30.5974 37.4959 30.0259 36.9334 30.8317 36.6331C31.622 36.3451 31.3271 35.2639 30.4077 35.0198C29.3248 34.7453 28.095 35.4659 27.3202 36.8479C26.383 38.5186 26.3401 40.5064 27.231 41.4121C28.095 42.3194 29.1773 41.6011 30.0122 39.5395C30.4499 38.4893 31.0791 37.9268 31.8117 37.9268C32.4546 37.9268 32.5729 38.3161 32.2934 39.4979C31.8831 41.326 32.162 41.8007 33.318 41.2405C33.6974 41.0667 34.3272 40.6651 34.7066 40.3771L35.4232 39.8146L35.9078 37.3227C36.4347 34.5299 36.6375 34.1541 37.7204 33.9544C38.7604 33.7654 38.9947 34.2706 38.613 35.8681L38.4073 36.7624L39.169 35.9974C40.9679 34.1828 43.1777 33.2907 43.9388 34.0399C44.3474 34.4421 44.3028 34.9472 43.7182 36.7315C43.4411 37.582 43.0594 38.9224 42.8856 39.6846C42.6222 40.8361 42.6062 41.1106 42.7542 41.2979C43.2228 41.8446 44.6554 41.2821 45.928 40.0581L46.6737 39.3398L46.7629 37.7401C46.8497 35.8967 47.024 35.2352 47.5217 34.6441C47.9903 34.0973 48.8389 33.6951 49.2921 33.8093C49.7452 33.9257 49.7452 34.3566 49.3366 35.6245C48.7652 37.3666 48.8252 41.3834 49.4104 41.3834C49.6446 41.3834 50.843 40.1459 51.6047 39.1092L52.1739 38.3442L51.7207 37.8852C50.9304 37.0639 50.7407 36.5318 50.7407 35.1914C50.7407 34.2137 50.8144 33.8532 51.0618 33.3762C51.4727 32.6292 52.1156 32.0824 52.8767 31.8647C53.6802 31.6206 54.6756 32.0228 55.0842 32.7434C55.4951 33.4774 55.3928 35.1188 54.8653 36.2438L54.4859 37.0634H54.9973C55.7002 37.0634 55.9774 36.8918 57.2362 35.7252C57.8945 35.1059 58.6557 34.5721 59.2249 34.3127C61.4638 33.2777 64.0981 33.8093 64.5353 35.3933C64.901 36.6612 64.0981 37.5533 62.6918 37.4521C61.6826 37.3801 61.4929 37.1202 62.0781 36.6331C63.1312 35.7668 62.0781 34.6598 60.5712 35.062C59.7517 35.2791 58.83 36.1847 58.3483 37.2372C57.3814 39.3398 57.8945 41.8159 59.2831 41.8159C59.8392 41.8159 60.8209 40.7354 61.2003 39.6846C61.6535 38.4741 62.6044 37.7119 63.3209 37.9859C63.7164 38.1293 63.7455 38.518 63.4975 39.742C63.2187 41.0824 63.1758 42.3351 63.3947 42.9106C63.4821 43.1254 63.7455 43.5299 63.9952 43.8027C64.4615 44.3207 64.4775 44.5081 64.0821 44.7539C63.8924 44.8832 63.6421 44.8264 63.0289 44.4951C62.1804 44.062 61.4483 43.2841 61.1849 42.55L61.0243 42.1191L60.4392 42.55C60.102 42.7806 59.5757 43.0399 59.2694 43.1254C58.0551 43.4421 56.5619 42.6226 55.8614 41.2405C55.5819 40.7061 55.4951 39.1379 55.7002 38.5332C55.8168 38.2013 55.8168 38.2013 55.3476 38.4319C55.1002 38.5619 54.5733 38.7047 54.1647 38.7486C53.4904 38.8217 53.3876 38.8937 52.7161 39.7285C51.7653 40.8929 50.0818 42.4645 49.3944 42.7964C47.9326 43.5147 47.4503 43.3127 47.0686 41.8289L46.8052 40.8361L46.1754 41.3834C45.372 42.0752 43.7628 42.9106 42.8405 43.1125C41.9633 43.2992 41.0262 43.0247 40.6462 42.4487C40.0776 41.5853 40.2673 39.7572 41.173 37.294C41.8451 35.4659 41.3633 35.4377 39.6667 37.1798C38.4078 38.4893 37.8673 39.4253 37.517 40.8799C37.1512 42.3919 36.7112 42.9387 35.7181 43.1693C35.1175 43.2992 34.838 42.9387 34.9569 42.1478L35.0438 41.5127L34.4878 41.8885C33.6974 42.4206 32.702 42.9106 32.0146 43.0973C31.3271 43.2841 30.4208 43.0838 30.2019 42.7081C29.8071 42.0471 29.8071 42.0471 29.1933 42.5213C27.8608 43.5872 25.959 43.2841 24.9944 41.8733L24.6858 41.4272L23.7218 42.3059C20.9406 44.8112 17.4605 45.934 14.885 45.1561C11.6078 44.1784 9.79522 41.4121 9.82436 37.4239C9.83807 33.4206 11.637 29.2019 14.6662 26.0772C16.3782 24.3194 17.9874 23.2821 19.6263 22.8934C20.8092 22.6054 21.528 22.6201 22.6526 22.9654Z" fill="#00C4CC"/>
<path d="M52.3053 33.2051C51.9836 33.5212 52.1019 34.7891 52.5111 35.5957C52.7162 36.0131 52.9351 36.345 53.0082 36.345C53.0665 36.345 53.1979 36.0131 53.3008 35.6087C53.6665 34.1124 53.0082 32.5127 52.3053 33.2051Z" fill="#00C4CC"/>
</g>
<defs>
<clipPath id="clip0_1367_18">
<rect width="73.1444" height="72" fill="white" transform="translate(0.636719 0.199951)"/>
</clipPath>
</defs>
</svg>
