<svg width="74" height="73" viewBox="0 0 74 73" fill="none" xmlns="http://www.w3.org/2000/svg">
<g clip-path="url(#clip0_1367_35)">
<path d="M72.061 33.4024L40.5655 2.0563C38.7529 0.251089 35.8111 0.251089 33.9956 2.0563L27.456 8.56621L35.7522 16.8233C37.6808 16.1755 39.8912 16.61 41.4278 18.1394C42.9724 19.6785 43.4055 21.8971 42.7387 23.8229L50.7343 31.7815C52.6686 31.1177 54.9012 31.5466 56.4452 33.0867C58.6053 35.2349 58.6053 38.7174 56.4452 40.8667C55.9319 41.3778 55.3225 41.7833 54.6516 42.0599C53.9808 42.3366 53.2618 42.479 52.5357 42.479C51.8096 42.479 51.0906 42.3366 50.4198 42.0599C49.749 41.7833 49.1395 41.3778 48.6262 40.8667C47.855 40.0986 47.3293 39.1206 47.1152 38.0559C46.9012 36.9911 47.0084 35.8871 47.4233 34.8828L39.9672 27.4618L39.966 46.9932C40.507 47.2584 41.0009 47.6096 41.4283 48.0329C43.5872 50.1811 43.5872 53.6624 41.4283 55.8151C39.2689 57.9633 35.7688 57.9633 33.6116 55.8151C31.4527 53.663 31.4527 50.1817 33.6116 48.0329C34.1288 47.5173 34.7441 47.1093 35.4214 46.8329V27.1205C34.7435 26.8448 34.1281 26.4366 33.6116 25.9199C31.9761 24.2933 31.5824 21.9045 32.4213 19.9048L24.2423 11.7643L2.64636 33.2574C1.77509 34.1248 1.28564 35.3011 1.28564 36.5277C1.28564 37.7542 1.77509 38.9305 2.64636 39.798L34.1425 71.1441C35.9562 72.9493 38.8969 72.9493 40.7135 71.1441L72.0616 39.9436C72.9327 39.0759 73.4219 37.8995 73.4218 36.6729C73.4217 35.4463 72.9322 34.2699 72.061 33.4024Z" fill="#F34F29"/>
</g>
<defs>
<clipPath id="clip0_1367_35">
<rect width="73.1444" height="72.8" fill="white" transform="translate(0.78125 0.199951)"/>
</clipPath>
</defs>
</svg>
