<svg width="74" height="72" viewBox="0 0 74 72" fill="none" xmlns="http://www.w3.org/2000/svg">
<g clip-path="url(#clip0_1367_47)">
<path d="M0.813477 0.791992H73.1436V71.2086H0.813477V0.791992Z" fill="#F0DB4F"/>
<path d="M67.2242 54.414C66.6943 51.2016 64.5426 48.5032 58.169 45.9872C55.9549 44.9966 53.4866 44.2873 52.7511 42.6538C52.4899 41.7032 52.4553 41.1677 52.6205 40.5922C53.0949 38.7247 55.3847 38.1426 57.1995 38.6781C58.3684 39.0594 59.4748 39.9364 60.1422 41.3353C63.2634 39.3677 63.257 39.3806 65.4365 38.0284C64.6385 36.8241 64.2127 36.2683 63.6904 35.7531C61.8132 33.7117 59.2553 32.6604 55.1645 32.7409L53.0336 33.0092C50.9917 33.5115 49.0457 34.5549 47.9046 35.9539C44.4806 39.7361 45.4571 46.3556 49.6235 49.0798C53.7281 52.0791 59.7579 52.7614 60.5281 55.566C61.2775 58.9995 57.9362 60.111 54.615 59.7161C52.1675 59.2206 50.8062 58.0095 49.3346 55.8073C46.6259 57.3334 46.6259 57.3334 43.841 58.8926C44.5014 60.2983 45.1953 60.9345 46.3024 62.1523C51.5418 67.3262 64.653 67.0719 67.0046 59.2408C67.0999 58.9719 67.7332 57.1787 67.2242 54.414ZM40.1345 33.1554H33.3691L33.3414 50.1834C33.3414 53.8048 33.5338 57.1247 32.9288 58.1422C31.9391 60.1436 29.3743 59.8956 28.2054 59.5074C27.0157 58.9382 26.4108 58.1287 25.7099 56.9846C25.5175 56.6561 25.3731 56.4019 25.3245 56.3822L19.824 59.6616C20.7386 61.4891 22.086 63.0754 23.8119 64.1059C26.39 65.6122 29.855 66.0741 33.4789 65.2641C35.8374 64.5952 37.8724 63.2098 38.9379 61.101C40.4782 58.3363 40.1477 54.99 40.1339 51.2887C40.1685 45.2503 40.1345 39.213 40.1345 33.1554Z" fill="#323330"/>
</g>
<defs>
<clipPath id="clip0_1367_47">
<rect width="73.9572" height="72" fill="white"/>
</clipPath>
</defs>
</svg>
