<svg width="74" height="73" viewBox="0 0 74 73" fill="none" xmlns="http://www.w3.org/2000/svg">
<path d="M2.08911 25.6182C2.08911 25.6182 0.359354 24.372 2.43768 22.7102L7.27665 18.3911C7.27665 18.3911 8.66296 16.9356 10.1276 18.2045L54.8 51.9473V68.1283C54.8 68.1283 54.7777 70.6694 51.5102 70.3896L2.08911 25.6182Z" fill="#2489CA"/>
<path d="M13.6055 36.0468L2.0892 46.4907C2.0892 46.4907 0.906319 47.3683 2.0892 48.9392L7.4356 53.7889C7.4356 53.7889 8.70535 55.1511 10.5831 53.6024L22.7885 44.367L13.6055 36.0468Z" fill="#1070B3"/>
<path d="M33.8202 36.1333L54.9367 20.0462L54.8001 3.9523C54.8001 3.9523 53.8984 0.439698 50.8897 2.26937L22.7886 27.7841L33.8202 36.1333Z" fill="#0877B9"/>
<path d="M51.5097 70.4096C52.7354 71.6625 54.2223 71.2513 54.2223 71.2513L70.6781 63.1626C72.785 61.7293 72.4901 59.952 72.4901 59.952V11.6395C72.4901 9.51521 70.3118 8.78209 70.3118 8.78209L56.048 1.9224C52.932 0.000593662 50.8896 2.26934 50.8896 2.26934C50.8896 2.26934 53.5143 0.382794 54.8 3.95284V67.8331C54.8 68.2728 54.7063 68.7033 54.5189 69.0923C54.144 69.8499 53.3268 70.554 51.3737 70.2589L51.5097 70.4096Z" fill="#3C99D4"/>
</svg>
