<svg width="74" height="72" viewBox="0 0 74 72" fill="none" xmlns="http://www.w3.org/2000/svg">
<path fill-rule="evenodd" clip-rule="evenodd" d="M37.423 71.001C57.0092 70.9718 72.8644 55.2887 72.8644 35.9432C72.8644 16.9122 57.0823 1.23867 38.2276 0.907356C18.4261 0.559731 1.87941 16.3761 1.87427 35.5557C1.86855 55.2876 17.6529 71.0292 37.423 71.001ZM37.3653 2.60442C56.1697 2.59823 71.1523 17.6372 71.1466 36.5119C71.1403 54.3314 55.7606 69.2382 37.379 69.2421C18.6523 69.246 3.59259 54.3004 3.59316 35.7126C3.59431 17.604 18.8884 2.61061 37.3653 2.60442ZM23.173 20.1915C23.4805 21.2001 22.6199 21.5511 21.705 21.6214C20.7421 21.6945 19.7798 21.766 18.6621 21.8498C22.3513 32.6689 25.9851 43.3277 29.7052 54.2346C29.9703 53.8077 30.0795 53.6873 30.1275 53.5467C32.1698 47.538 34.2235 41.5334 36.2139 35.5079C36.3956 34.9583 36.3053 34.2304 36.1064 33.6657C35.0533 30.6732 33.7915 27.7459 32.8681 24.7174C32.2366 22.644 31.3989 21.3025 28.9091 21.5427C28.4851 21.5837 27.9674 20.6854 27.4925 20.2214C28.0668 19.8839 28.6371 19.2629 29.2166 19.2544C34.2865 19.1777 39.3573 19.1792 44.4272 19.2589C45.0089 19.2685 45.5792 19.9058 46.1535 20.2517C45.6506 20.704 45.2169 21.3824 44.6289 21.5573C43.6855 21.8374 42.6392 21.7845 41.51 21.8835L52.5668 54.261C54.2417 48.7845 55.8 43.7558 57.3155 38.7141C58.6675 34.2135 57.8618 30.0105 55.4171 26.0466C54.6823 24.8547 53.7794 23.6982 53.3628 22.3982C52.8897 20.9194 52.4965 19.2359 52.7474 17.7525C53.1731 15.2387 55.1326 13.9905 57.784 13.7515C43.274 0.495607 20.4724 5.24086 12.0705 19.6437C15.3048 19.4969 18.3929 19.3039 21.4833 19.2623C22.0673 19.255 23.0359 19.741 23.173 20.1915ZM28.9543 64.0502C28.8869 64.2443 28.8829 64.4603 28.8297 64.7826C35.083 66.4892 41.2157 66.366 47.4924 64.2842L37.9036 38.4317C34.835 47.2129 31.8921 55.6302 28.9543 64.0502ZM24.1222 62.8814L9.67558 23.872C3.1583 36.4034 8.11612 55.5227 24.1222 62.8814ZM67.7963 37.8152C68.2546 31.8899 66.1779 23.6858 64.3848 22.5574C64.1848 24.7371 64.3242 27.162 63.6888 29.3715C62.1933 34.5775 60.3647 39.6929 58.6035 44.8223C56.6892 50.3978 54.6994 55.948 52.7422 61.5094C61.9379 56.1437 66.9911 48.2243 67.7963 37.8152Z" fill="#E5E6E0"/>
</svg>
