<svg width="125" height="124" viewBox="0 0 125 124" fill="none" xmlns="http://www.w3.org/2000/svg">
<g clip-path="url(#clip0_1720_218)">
<rect x="0.742065" width="124" height="124" rx="16" fill="#323232"/>
<rect x="45.7421" y="18" width="17" height="17" rx="4" fill="#FFC412"/>
<path d="M61.9623 55.72V66.216H68.1123C69.5337 66.216 70.4903 65.8607 70.9823 65.15C71.4743 64.3847 71.7203 63.4553 71.7203 62.362V59.574C71.7203 58.4807 71.4743 57.5787 70.9823 56.868C70.4903 56.1027 69.5337 55.72 68.1123 55.72H61.9623ZM59.0103 100H46.3823C45.3437 100 44.5783 99.7813 44.0863 99.344C43.649 98.852 43.4303 98.0867 43.4303 97.048V43.912C43.4303 42.8733 43.649 42.1353 44.0863 41.698C44.5783 41.206 45.3437 40.96 46.3823 40.96H73.6883C79.811 40.96 84.0203 42.2447 86.3163 44.814C88.667 47.3287 89.8423 50.6087 89.8423 54.654V58.426C89.8423 60.722 89.487 62.69 88.7763 64.33C88.1203 65.9153 86.945 67.0633 85.2503 67.774C88.2023 68.102 90.5803 69.3047 92.3843 71.382C94.243 73.4593 95.1723 76.22 95.1723 79.664V97.048C95.1723 98.0867 94.9263 98.852 94.4343 99.344C93.997 99.7813 93.259 100 92.2203 100H79.5103C78.4717 100 77.7063 99.7813 77.2143 99.344C76.777 98.852 76.5583 98.0867 76.5583 97.048V84.502C76.5583 83.2993 76.3123 82.4247 75.8203 81.878C75.383 81.2767 74.5903 80.976 73.4423 80.976H61.9623V97.048C61.9623 98.0867 61.7163 98.852 61.2243 99.344C60.787 99.7813 60.049 100 59.0103 100Z" fill="white"/>
<path d="M42.7421 38H62.7421V106H42.7421V38Z" fill="#323232"/>
<path d="M62.8254 87.77C62.8254 89.9167 62.5221 91.8767 61.9154 93.65C61.3087 95.3767 60.2354 96.87 58.6954 98.13C57.2021 99.3433 55.1254 100.3 52.4654 101C49.8054 101.7 46.4221 102.05 42.3154 102.05C38.2554 102.05 34.8954 101.7 32.2354 101C29.6221 100.3 27.5454 99.3433 26.0054 98.13C24.5121 96.87 23.4621 95.3767 22.8554 93.65C22.2954 91.8767 22.0154 89.9167 22.0154 87.77V76.43C22.0154 75.5433 22.2021 74.9133 22.5754 74.54C22.9954 74.12 23.6487 73.91 24.5354 73.91H34.6854C35.5721 73.91 36.2021 74.12 36.5754 74.54C36.9954 74.9133 37.2054 75.5433 37.2054 76.43V84.97C37.2054 85.9033 37.4854 86.6967 38.0454 87.35C38.6521 87.9567 40.0287 88.26 42.1754 88.26C44.1821 88.26 45.4421 87.9567 45.9554 87.35C46.5154 86.6967 46.7954 85.9033 46.7954 84.97V53.12C46.7954 52.2333 46.9821 51.6033 47.3554 51.23C47.7754 50.81 48.4287 50.6 49.3154 50.6H60.3054C61.1921 50.6 61.8221 50.81 62.1954 51.23C62.6154 51.6033 62.8254 52.2333 62.8254 53.12V87.77Z" fill="white"/>
<rect x="46.7421" y="39" width="16" height="44" rx="2" fill="white"/>
</g>
<defs>
<clipPath id="clip0_1720_218">
<rect x="0.742065" width="124" height="124" rx="16" fill="white"/>
</clipPath>
</defs>
</svg>
