<svg width="129" height="24" viewBox="0 0 129 24" fill="none" xmlns="http://www.w3.org/2000/svg">
<path d="M15.07 23H1.15C0.77 23 0.49 22.92 0.31 22.76C0.15 22.58 0.0700002 22.3 0.0700002 21.92V2.48C0.0700002 2.1 0.15 1.83 0.31 1.67C0.49 1.49 0.77 1.4 1.15 1.4H15.07C15.45 1.4 15.72 1.49 15.88 1.67C16.06 1.83 16.15 2.1 16.15 2.48V5.99C16.15 6.37 16.06 6.65 15.88 6.83C15.72 6.99 15.45 7.07 15.07 7.07H6.79V9.38H12.64C13.02 9.38 13.29 9.47 13.45 9.65C13.63 9.81 13.72 10.08 13.72 10.46V13.67C13.72 14.05 13.63 14.33 13.45 14.51C13.29 14.67 13.02 14.75 12.64 14.75H6.79V17.33H15.07C15.45 17.33 15.72 17.42 15.88 17.6C16.06 17.76 16.15 18.03 16.15 18.41V21.92C16.15 22.3 16.06 22.58 15.88 22.76C15.72 22.92 15.45 23 15.07 23ZM34.3989 23H19.1289C18.7489 23 18.4689 22.92 18.2889 22.76C18.1289 22.58 18.0489 22.3 18.0489 21.92V2.48C18.0489 2.1 18.1289 1.83 18.2889 1.67C18.4689 1.49 18.7489 1.4 19.1289 1.4H23.7789C24.1589 1.4 24.4289 1.49 24.5889 1.67C24.7689 1.83 24.8589 2.1 24.8589 2.48V17.33H28.9689V12.47C28.9689 12.09 29.0489 11.82 29.2089 11.66C29.3889 11.48 29.6689 11.39 30.0489 11.39H34.3989C34.7789 11.39 35.0489 11.48 35.2089 11.66C35.3889 11.82 35.4789 12.09 35.4789 12.47V21.92C35.4789 22.3 35.3889 22.58 35.2089 22.76C35.0489 22.92 34.7789 23 34.3989 23ZM42.8083 23H38.3383C37.9583 23 37.6783 22.92 37.4983 22.76C37.3383 22.58 37.2583 22.3 37.2583 21.92V2.48C37.2583 2.1 37.3383 1.83 37.4983 1.67C37.6783 1.49 37.9583 1.4 38.3383 1.4H43.1683C43.4883 1.4 43.7483 1.47 43.9483 1.61C44.1683 1.75 44.3683 1.98 44.5483 2.3L47.2483 7.19C47.3483 7.37 47.4283 7.5 47.4883 7.58C47.5683 7.66 47.6683 7.7 47.7883 7.7H48.0583C48.1783 7.7 48.2683 7.66 48.3283 7.58C48.4083 7.5 48.4983 7.37 48.5983 7.19L51.2683 2.3C51.4483 1.98 51.6383 1.75 51.8383 1.61C52.0583 1.47 52.3283 1.4 52.6483 1.4H57.5083C57.8883 1.4 58.1583 1.49 58.3183 1.67C58.4983 1.83 58.5883 2.1 58.5883 2.48V21.92C58.5883 22.3 58.4983 22.58 58.3183 22.76C58.1583 22.92 57.8883 23 57.5083 23H52.8883C52.5083 23 52.2283 22.92 52.0483 22.76C51.8883 22.58 51.8083 22.3 51.8083 21.92V11.36L50.0383 14.63C49.8583 14.97 49.6383 15.22 49.3783 15.38C49.1383 15.52 48.8283 15.59 48.4483 15.59H47.2483C46.8683 15.59 46.5483 15.52 46.2883 15.38C46.0483 15.22 45.8383 14.97 45.6583 14.63L43.8883 11.36V21.92C43.8883 22.3 43.7983 22.58 43.6183 22.76C43.4583 22.92 43.1883 23 42.8083 23ZM79.3673 17.33C79.3673 18.25 79.2273 19.09 78.9473 19.85C78.6873 20.59 78.2073 21.23 77.5073 21.77C76.8273 22.29 75.8773 22.7 74.6573 23C73.4573 23.3 71.9273 23.45 70.0673 23.45C68.2073 23.45 66.6673 23.3 65.4473 23C64.2273 22.7 63.2673 22.29 62.5673 21.77C61.8873 21.23 61.4073 20.59 61.1273 19.85C60.8673 19.09 60.7373 18.25 60.7373 17.33V7.1C60.7373 6.18 60.8673 5.35 61.1273 4.61C61.4073 3.85 61.8873 3.2 62.5673 2.66C63.2673 2.12 64.2273 1.7 65.4473 1.4C66.6673 1.1 68.2073 0.95 70.0673 0.95C71.9273 0.95 73.4573 1.1 74.6573 1.4C75.8773 1.7 76.8273 2.12 77.5073 2.66C78.2073 3.2 78.6873 3.85 78.9473 4.61C79.2273 5.35 79.3673 6.18 79.3673 7.1V17.33ZM67.5473 16.25C67.5473 16.65 67.6973 16.99 67.9973 17.27C68.2973 17.53 68.9873 17.66 70.0673 17.66C71.1473 17.66 71.8373 17.53 72.1373 17.27C72.4373 16.99 72.5873 16.65 72.5873 16.25V8.18C72.5873 7.8 72.4373 7.48 72.1373 7.22C71.8373 6.94 71.1473 6.8 70.0673 6.8C68.9873 6.8 68.2973 6.94 67.9973 7.22C67.6973 7.48 67.5473 7.8 67.5473 8.18V16.25ZM98.1864 17.33C98.1864 18.25 98.0564 19.09 97.7964 19.85C97.5364 20.59 97.0764 21.23 96.4164 21.77C95.7764 22.29 94.8864 22.7 93.7464 23C92.6064 23.3 91.1564 23.45 89.3964 23.45C87.6564 23.45 86.2164 23.3 85.0764 23C83.9564 22.7 83.0664 22.29 82.4064 21.77C81.7664 21.23 81.3164 20.59 81.0564 19.85C80.8164 19.09 80.6964 18.25 80.6964 17.33V12.47C80.6964 12.09 80.7764 11.82 80.9364 11.66C81.1164 11.48 81.3964 11.39 81.7764 11.39H86.1264C86.5064 11.39 86.7764 11.48 86.9364 11.66C87.1164 11.82 87.2064 12.09 87.2064 12.47V16.13C87.2064 16.53 87.3264 16.87 87.5664 17.15C87.8264 17.41 88.4164 17.54 89.3364 17.54C90.1964 17.54 90.7364 17.41 90.9564 17.15C91.1964 16.87 91.3164 16.53 91.3164 16.13V2.48C91.3164 2.1 91.3964 1.83 91.5564 1.67C91.7364 1.49 92.0164 1.4 92.3964 1.4H97.1064C97.4864 1.4 97.7564 1.49 97.9164 1.67C98.0964 1.83 98.1864 2.1 98.1864 2.48V17.33ZM107.321 6.8V10.64H109.571C110.091 10.64 110.441 10.51 110.621 10.25C110.801 9.97 110.891 9.63 110.891 9.23V8.21C110.891 7.81 110.801 7.48 110.621 7.22C110.441 6.94 110.091 6.8 109.571 6.8H107.321ZM106.241 23H101.621C101.241 23 100.961 22.92 100.781 22.76C100.621 22.58 100.541 22.3 100.541 21.92V2.48C100.541 2.1 100.621 1.83 100.781 1.67C100.961 1.49 101.241 1.4 101.621 1.4H111.611C113.851 1.4 115.391 1.87 116.231 2.81C117.091 3.73 117.521 4.93 117.521 6.41V7.79C117.521 8.63 117.391 9.35 117.131 9.95C116.891 10.53 116.461 10.95 115.841 11.21C116.921 11.33 117.791 11.77 118.451 12.53C119.131 13.29 119.471 14.3 119.471 15.56V21.92C119.471 22.3 119.381 22.58 119.201 22.76C119.041 22.92 118.771 23 118.391 23H113.741C113.361 23 113.081 22.92 112.901 22.76C112.741 22.58 112.661 22.3 112.661 21.92V17.33C112.661 16.89 112.571 16.57 112.391 16.37C112.231 16.15 111.941 16.04 111.521 16.04H107.321V21.92C107.321 22.3 107.231 22.58 107.051 22.76C106.891 22.92 106.621 23 106.241 23Z" fill="#E5E6E0"/>
<path d="M127.906 23H121.846C121.466 23 121.186 22.92 121.006 22.76C120.846 22.58 120.766 22.3 120.766 21.92V15.83C120.766 15.45 120.846 15.18 121.006 15.02C121.186 14.84 121.466 14.75 121.846 14.75H127.906C128.286 14.75 128.556 14.84 128.716 15.02C128.896 15.18 128.986 15.45 128.986 15.83V21.92C128.986 22.3 128.896 22.58 128.716 22.76C128.556 22.92 128.286 23 127.906 23Z" fill="#FFC412"/>
</svg>
