<svg width="415" height="415" viewBox="0 0 415 415" fill="none" xmlns="http://www.w3.org/2000/svg">
<rect x="0.54248" y="1.02124" width="413.042" height="413.042" rx="79.5" fill="#B33333" stroke="#B33333"/>
<mask id="mask0_1736_115" style="mask-type:alpha" maskUnits="userSpaceOnUse" x="0" y="0" width="415" height="415">
<rect x="0.0424805" y="0.52124" width="414.042" height="414.042" rx="80" fill="white"/>
</mask>
<g mask="url(#mask0_1736_115)">
<path d="M318.246 181.56C317.188 178.818 318.693 175.727 321.501 174.872L338.338 169.751C339.881 169.281 341.51 170.077 342.091 171.583V171.583C342.654 173.041 342.053 174.704 340.687 175.469L325.286 184.091C322.643 185.571 319.335 184.381 318.246 181.56V181.56Z" fill="white"/>
<path d="M307.386 183.912C304.687 178.922 309.233 173.048 314.681 174.486V174.486C316.378 174.933 317.814 176.066 318.655 177.62L321.25 182.417C322.141 184.064 322.278 186.027 321.624 187.796V187.796C319.696 193.016 312.611 193.571 309.981 188.709L307.386 183.912Z" fill="white"/>
<ellipse cx="8.05069" cy="15.7346" rx="8.05069" ry="15.7346" transform="matrix(0.954101 -0.299485 0.286684 0.958025 332.354 157.159)" fill="white"/>
<path d="M90.8756 185.857C90.0397 188.699 86.9799 190.195 84.2188 189.112L62.8127 180.716C61.3209 180.131 60.5151 178.488 60.9667 176.952V176.952C61.4067 175.457 62.8979 174.552 64.4246 174.854L86.9153 179.305C89.8869 179.893 91.7319 182.945 90.8756 185.857V185.857Z" fill="white"/>
<path d="M100.382 191.665C98.7806 197.109 91.472 197.882 88.6497 192.905V192.905C87.7699 191.354 87.5544 189.515 88.0536 187.818L89.5886 182.599C90.1178 180.8 91.3994 179.332 93.1001 178.578V178.578C98.1138 176.355 103.477 181.141 101.917 186.446L100.382 191.665Z" fill="white"/>
<ellipse cx="8.60972" cy="16.7456" rx="8.60972" ry="16.7456" transform="matrix(-0.954607 -0.297869 0.282179 -0.959362 57.0979 193.923)" fill="white"/>
<ellipse cx="205.046" cy="192.638" rx="112.797" ry="77.1594" transform="rotate(0.511625 205.046 192.638)" fill="white"/>
<mask id="path-10-inside-1_1736_115" fill="white">
<path d="M317.149 200.349C316.989 218.258 267.74 237.93 204.547 237.365C141.354 236.801 92.4741 215.135 92.634 197.226C92.5142 210.644 141.474 223.383 204.667 223.947C267.86 224.511 317.039 212.649 317.149 200.349Z"/>
</mask>
<path d="M317.149 200.349C316.989 218.258 267.74 237.93 204.547 237.365C141.354 236.801 92.4741 215.135 92.634 197.226C92.5142 210.644 141.474 223.383 204.667 223.947C267.86 224.511 317.039 212.649 317.149 200.349Z" fill="white"/>
<path d="M132.156 198.697C132.526 157.306 147.192 125.294 160.449 105.205C173.274 85.7725 187.073 73.7111 195.162 67.4528C210.806 55.3475 222.715 51.4005 223.332 51.1845C226.396 50.1112 219.991 52.4959 206.199 52.3727L202.895 422.358C252.296 422.799 302.112 415.63 345.639 400.385C366.487 393.083 394.687 380.895 421.586 360.082C442.127 344.189 501.334 292.46 502.141 202.001L132.156 198.697ZM206.199 52.3727C193.559 52.2599 187.869 49.8337 191.209 51.1175C192.024 51.4309 203.592 55.6918 218.62 68.0415C226.369 74.4088 239.518 86.5856 251.609 105.899C264.028 125.735 277.995 157.677 277.627 198.878L-92.3586 195.574C-93.1578 285.071 -35.9583 337.741 -16.2873 353.906C9.83598 375.373 37.5427 388.443 58.4571 396.482C101.995 413.218 152.342 421.907 202.895 422.358L206.199 52.3727ZM-92.3586 195.574C-92.9093 257.243 -64.4807 301.427 -43.5083 325.044C-23.1564 347.962 -1.55858 361.523 11.339 368.691C37.5143 383.237 63.5979 390.855 80.8676 395.088C118.255 404.252 161.099 408.565 203.015 408.939L206.319 38.9542C185.041 38.7642 171.809 36.4261 168.949 35.7251C166.094 35.0254 176.011 36.9081 191.065 45.2739C198.402 49.3512 215.701 59.7117 233.152 79.3625C251.223 99.7122 278.147 140.563 277.627 198.878L-92.3586 195.574ZM203.015 408.939C245.078 409.315 287.463 405.734 324.201 397.676C341.173 393.953 366.34 387.295 391.766 374.463C404.084 368.246 425.671 356.054 446.642 334.774C467.504 313.605 501.546 268.696 502.141 202.001L132.156 198.697C132.724 135.076 165.206 93.2285 183.11 75.0611C201.124 56.7819 218.357 47.5295 225.061 44.146C239.26 36.9797 248.162 35.5584 244.927 36.2681C241.249 37.0747 227.449 39.1429 206.319 38.9542L203.015 408.939Z" fill="#B33333" mask="url(#path-10-inside-1_1736_115)"/>
<rect x="101.733" y="315.38" width="257.477" height="174.549" rx="56" transform="rotate(-7.12372 101.733 315.38)" fill="white"/>
<path d="M192.682 133.291C192.483 152.95 178.118 168.198 161.262 168.065C144.406 167.933 130.351 152.46 130.55 132.801C130.749 113.142 145.114 97.8941 161.97 98.027C178.826 98.1599 192.881 113.632 192.682 133.291Z" fill="#B33333" stroke="white" stroke-width="6"/>
<path d="M263.289 130.323C263.089 150.117 249.053 165.32 232.773 165.192C216.494 165.063 202.767 149.642 202.967 129.848C203.167 110.055 217.203 94.8515 233.482 94.9796C249.761 95.1077 263.488 110.529 263.289 130.323Z" fill="#B33333" stroke="white" stroke-width="6"/>
<path d="M225.213 163.49C225.61 172.835 223.095 181.398 218.731 187.688C214.367 193.979 208.176 197.973 201.202 198.27C194.229 198.566 187.721 195.11 182.84 189.213C177.958 183.315 174.726 174.996 174.329 165.651C173.932 156.306 176.447 147.743 180.811 141.453C185.175 135.162 191.366 131.168 198.339 130.871C205.313 130.575 211.82 134.03 216.702 139.928C221.584 145.826 224.816 154.145 225.213 163.49Z" fill="white" stroke="white"/>
</g>
<rect x="16.0425" y="16.5212" width="382.042" height="382.042" rx="64" stroke="#B33333" stroke-width="32"/>
</svg>
